<svg xmlns="http://www.w3.org/2000/svg" viewBox="0 0 20 20" stroke="none" fill="currentColor">
  <path fill-rule="evenodd" d="M11.608687,2.2919303 L15.7211316,4.66639318 C15.8398596,4.54076858 15.9761086,4.43294969 16.1256594,4.34627526 C16.9785192,3.85594693 18.0663917,4.14707068 18.5617957,5 C19.052124,5.85292932 18.7610003,6.94073229 17.908071,7.43613634 C17.7596338,7.52161748 17.5996763,7.58531015 17.4331089,7.625259 L17.4331089,12.375923 C17.5978569,12.415939 17.7560718,12.4791969 17.9029953,12.5637941 C18.7610003,13.0591982 19.052124,14.1470707 18.55672,15 C18.0663917,15.8528598 16.9734435,16.1439835 16.1205141,15.6537247 C15.9552774,15.5589257 15.8064228,15.4380812 15.6796915,15.2958518 L11.5922778,17.6557133 C11.6521384,17.8369626 11.6825385,18.0266405 11.6823197,18.2175189 C11.6823197,19.198106 10.8856405,20 9.89990811,20 C8.91417574,20 8.11749652,19.2031817 8.11749652,18.2175189 C8.11749652,18.0423023 8.14266652,17.8730653 8.18959953,17.7132149 L4.07826747,15.3394474 C3.96084141,15.4625806 3.82650948,15.568398 3.67930208,15.6537247 C2.82129705,16.1439835 1.73342454,15.8528598 1.24309622,15 C0.752837424,14.1470707 1.04396117,13.0591982 1.89682096,12.5637941 C2.04374467,12.4791812 2.20195853,12.4159003 2.36670735,12.3758535 L2.36670735,7.625259 C2.20013994,7.58531015 2.04018238,7.52161748 1.89174524,7.43613634 C1.03881592,6.94587754 0.747692175,5.85292932 1.2380205,5 C1.72834882,4.14707068 2.82122752,3.85594693 3.67415683,4.34627526 C3.8228887,4.43248704 3.95846667,4.53961471 4.0767378,4.6643768 L8.19036437,2.28928815 C8.14187254,2.12470248 8.11733146,1.9539921 8.11749652,1.78241159 C8.11749652,0.796818289 8.91417574,0 9.89990811,0 C10.8856405,0 11.6823197,0.796748759 11.6823197,1.78241159 C11.6823197,1.95957503 11.6565935,2.13055026 11.608687,2.2919303 Z M11.1802407,3.02352908 L15.3024891,5.40355439 C15.1698666,5.86715124 15.2310119,6.36471912 15.4719346,6.78241159 C15.7228698,7.21892339 16.131639,7.50830888 16.5853248,7.62108718 L16.5853248,12.3776613 C16.5621712,12.3832932 16.5391566,12.3894814 16.5162811,12.3960173 L11.1323343,3.0711574 C11.1486044,3.0555826 11.1645964,3.03972967 11.1802407,3.02352908 L11.1802407,3.02352908 Z M8.6685944,3.07220036 L3.28471711,12.3969212 C3.26143762,12.3901902 3.23802426,12.3839312 3.21449141,12.378148 L3.21449141,7.62108718 C3.66817722,7.50830888 4.07694639,7.21892339 4.32788158,6.78241159 C4.56929439,6.36389889 4.63020687,5.86522974 4.49663184,5.40091224 L8.61769815,3.02158223 C8.63431592,3.03875624 8.65128133,3.05565213 8.6685944,3.07213083 L8.6685944,3.07220036 Z M10.3979543,3.49459749 L15.78058,12.8172324 C15.6572835,12.934882 15.5515987,13.0696985 15.4667894,13.2175189 C15.3821921,13.3644423 15.3189343,13.5226572 15.2789183,13.6874053 L4.521037,13.6874053 C4.48096826,13.5226528 4.41766392,13.3644387 4.33302682,13.2175189 C4.2479219,13.0707177 4.14243804,12.9367209 4.01972288,12.8195269 L9.40339158,3.49501467 C9.56479661,3.54149014 9.73194524,3.56499066 9.89990811,3.56482318 C10.0728302,3.56482318 10.2399117,3.54034849 10.3979543,3.49459749 Z M11.2180653,17.016729 L15.3135444,14.6521395 C15.3012678,14.6135376 15.2902989,14.574532 15.2806565,14.5351893 L4.5187425,14.5351893 C4.51304101,14.558343 4.5068528,14.581288 4.50024742,14.6041635 L8.6157513,16.9803646 C8.95157935,16.6311597 9.41542517,16.4342092 9.89990811,16.4351073 C10.4016936,16.4342304 10.8804732,16.6454864 11.2180653,17.016729 L11.2180653,17.016729 Z"/>
</svg>
