<svg xmlns="http://www.w3.org/2000/svg" viewBox="0 0 20 20" stroke="none" fill="currentColor">
  <path d="M9.29576759,6.41241736 L8.91054266,7.368767 L10.7156843,8.59264729 C10.8129923,8.65805156 10.8649132,8.78054708 10.8505905,8.90370099 L10.8505905,8.90370099 L10.8442855,8.94061048 L10.7229619,9.47657072 C10.6924038,9.61156411 10.586281,9.70910016 10.4611161,9.7172297 L10.4611161,9.7172297 L8.86774987,9.82036433 L10.2303897,10.7364883 C10.3276977,10.8018925 10.3796187,10.924388 10.3652959,11.047542 L10.3652959,11.047542 L10.358991,11.0844514 L10.2376673,11.6204117 C10.2071093,11.7554051 10.1009865,11.8529411 9.97582155,11.8610707 L9.97582155,11.8610707 L8.38241581,11.9644502 L9.74509519,12.8803292 C9.84240318,12.9457335 9.89432411,13.068229 9.88000139,13.1913829 L9.88000139,13.1913829 L9.8736964,13.2282924 L9.75237276,13.7642527 C9.72181473,13.899246 9.61569194,13.9967821 9.490527,14.0049116 L9.490527,14.0049116 L7.89737341,14.1082236 L9.25980064,15.0241702 C9.35710863,15.0895745 9.40902956,15.21207 9.39470684,15.3352239 L9.39470684,15.3352239 L9.38840185,15.3721334 L9.26707821,15.9080936 C9.23652018,16.043087 9.13039739,16.1406231 9.00523245,16.1487526 L9.00523245,16.1487526 L7.41204489,16.2519921 L8.77450609,17.1680111 C8.87181408,17.2334154 8.92373501,17.3559109 8.90941228,17.4790648 L8.90941228,17.4790648 L8.9031073,17.5159743 L8.78178366,18.0519346 C8.75122563,18.186928 8.64510284,18.284464 8.5199379,18.2925936 L8.5199379,18.2925936 L6.28542322,18.4826147 L6.0073766,19.6322034 L4.22329926,19.6322034 L4.77494174,17.5200609 C4.80549977,17.3850675 4.91162256,17.2875315 5.0367875,17.279402 L5.0367875,17.279402 L6.63004022,17.1757001 L5.26751386,16.2601434 C5.17020587,16.1947391 5.11828494,16.0722436 5.13260767,15.9490897 L5.13260767,15.9490897 L5.13891265,15.9121802 L5.26023629,15.37622 C5.29079432,15.2412266 5.39691711,15.1436905 5.52208205,15.135561 L5.52208205,15.135561 L7.11508262,15.0319266 L5.75280841,14.1163024 C5.65550042,14.0508982 5.60357949,13.9284026 5.61790222,13.8052487 L5.61790222,13.8052487 L5.6242072,13.7683392 L5.74553084,13.232379 C5.77608887,13.0973856 5.88221166,12.9998496 6.0073766,12.99172 L6.0073766,12.99172 L7.60041114,12.8881582 L6.23810296,11.9724615 C6.14079497,11.9070572 6.08887404,11.7845617 6.10319677,11.6614078 L6.10319677,11.6614078 L6.10950175,11.6244983 L6.23082539,11.088538 C6.26138342,10.9535446 6.36750621,10.8560086 6.49267115,10.8478791 L6.49267115,10.8478791 L8.08573965,10.7443898 L6.72339751,9.8286205 C6.62608952,9.76321622 6.57416859,9.64072071 6.58849132,9.5175668 L6.58849132,9.5175668 L6.5947963,9.48065731 L6.71611994,8.94469707 C6.74667797,8.80970368 6.85280076,8.71216763 6.9779657,8.70403809 L6.9779657,8.70403809 L8.57106817,8.60062133 L7.20869206,7.68477954 C7.11138407,7.61937526 7.05946314,7.49687974 7.07378587,7.37372583 L7.07378587,7.37372583 L7.08009085,7.33681634 L7.32816621,6.48542633 L9.29576759,6.41241736 Z M10.6678901,0 C11.3994155,0 11.9414494,0.240169492 12.2939918,0.720508475 C12.6465341,1.20084746 12.7522969,1.7759322 12.6112799,2.44576271 C12.4526358,3.21254237 12.1243308,3.73033898 11.6263647,3.99915254 C11.1283986,4.2679661 10.509246,4.40237288 9.76890703,4.40237288 C9.04619516,4.40237288 8.50195787,4.19305085 8.13619516,3.77440678 C7.77043245,3.35576271 7.66687313,2.75864407 7.8255172,1.98305085 C7.9753477,1.2779661 8.30365279,0.771186441 8.81043245,0.462711864 C9.31721211,0.154237288 9.93636465,0 10.6678901,0 Z"/>
</svg>
