<svg xmlns="http://www.w3.org/2000/svg" viewBox="0 0 20 20" stroke="none" fill="currentColor">
  <path d="M10,15 C11.3807119,15 12.5,16.1192881 12.5,17.5 C12.5,18.8807119 11.3807119,20 10,20 C8.61928813,20 7.5,18.8807119 7.5,17.5 C7.5,16.1192881 8.61928813,15 10,15 Z M17.5,7.5 C18.8807119,7.5 20,8.61928813 20,10 C20,11.3807119 18.8807119,12.5 17.5,12.5 C16.1192881,12.5 15,11.3807119 15,10 C15,8.61928813 16.1192881,7.5 17.5,7.5 Z M2.5,7.5 C3.88071187,7.5 5,8.61928813 5,10 C5,11.3807119 3.88071187,12.5 2.5,12.5 C1.11928813,12.5 0,11.3807119 0,10 C0,8.61928813 1.11928813,7.5 2.5,7.5 Z M10,0 C11.3807119,0 12.5,1.11928813 12.5,2.5 C12.5,3.88071187 11.3807119,5 10,5 C8.61928813,5 7.5,3.88071187 7.5,2.5 C7.5,1.11928813 8.61928813,0 10,0 Z"/>
</svg>
